<svg xmlns="http://www.w3.org/2000/svg" viewBox="0 0 70.87 70.87"><defs><style>.cls-1{fill:#231f20;}.cls-2{fill:#fff;}</style></defs><g id="Layer_2" data-name="Layer 2"><g id="Layer_1-2" data-name="Layer 1"><circle class="cls-1" cx="35.43" cy="35.43" r="35.43"/><path class="cls-2" d="M57.76,28.07a10,10,0,0,0-2.56-1.54,6.85,6.85,0,0,0-2.48-.5,4,4,0,0,0-2.48.72,2.25,2.25,0,0,0-1,1.88A1.85,1.85,0,0,0,49.76,30a4.07,4.07,0,0,0,1.26.9,9.78,9.78,0,0,0,1.76.66c.65.19,1.3.39,1.94.6a12.22,12.22,0,0,1,5.62,3.42,8.43,8.43,0,0,1,1.78,5.58,10.84,10.84,0,0,1-.78,4.2,8.68,8.68,0,0,1-2.28,3.22,10.4,10.4,0,0,1-3.68,2.08,15.13,15.13,0,0,1-4.94.74A18.14,18.14,0,0,1,39.84,48l3.36-6.32A13.35,13.35,0,0,0,46.68,44a8.32,8.32,0,0,0,3.4.76,4,4,0,0,0,2.86-.88,2.65,2.65,0,0,0,.94-2,2.73,2.73,0,0,0-.24-1.18,2.62,2.62,0,0,0-.8-.92A6.34,6.34,0,0,0,51.38,39c-.6-.24-1.33-.5-2.18-.8-1-.32-2-.67-3-1.06a9.26,9.26,0,0,1-2.6-1.54,7.13,7.13,0,0,1-1.84-2.42,8.48,8.48,0,0,1-.7-3.7,10.79,10.79,0,0,1,.74-4.06,9.09,9.09,0,0,1,2.08-3.12,9.37,9.37,0,0,1,3.28-2,12.39,12.39,0,0,1,4.34-.72,19.2,19.2,0,0,1,4.68.62A20.83,20.83,0,0,1,60.88,22Z"/><path class="cls-2" d="M8.75,20.35h11.6a13.8,13.8,0,0,1,5.78,1.24,15.92,15.92,0,0,1,4.72,3.3A15.7,15.7,0,0,1,34,29.69a14.8,14.8,0,0,1,0,11.44A15.27,15.27,0,0,1,30.89,46a15.44,15.44,0,0,1-4.72,3.32,13.73,13.73,0,0,1-5.82,1.24H8.75Zm7.84,23.52h1.8A9.68,9.68,0,0,0,22,43.23a7.76,7.76,0,0,0,2.7-1.76,7.54,7.54,0,0,0,1.68-2.66A9.63,9.63,0,0,0,27,35.43a9.28,9.28,0,0,0-.6-3.36,7.82,7.82,0,0,0-1.7-2.68A8,8,0,0,0,22,27.63a9.78,9.78,0,0,0-3.6-.64h-1.8Z"/></g></g></svg>