<svg xmlns="http://www.w3.org/2000/svg" viewBox="0 0 345.32 31.88"><defs><style>.cls-1{fill:#231f20;}</style></defs><g id="Layer_2" data-name="Layer 2"><g id="Layer_1-2" data-name="Layer 1"><polygon class="cls-1" points="217.82 0.84 217.82 7.48 222.15 7.48 224.26 7.48 232.1 7.48 232.14 7.48 238.54 7.48 238.54 0.84 217.82 0.84"/><path class="cls-1" d="M76,8.56A9.73,9.73,0,0,0,73.38,7a6.85,6.85,0,0,0-2.48-.5,4,4,0,0,0-2.48.72,2.24,2.24,0,0,0-1,1.88A1.84,1.84,0,0,0,68,10.44a3.91,3.91,0,0,0,1.25.9A11.31,11.31,0,0,0,71,12c.65.19,1.29.39,1.93.6A12,12,0,0,1,78.52,16,8.43,8.43,0,0,1,80.3,21.6a10.84,10.84,0,0,1-.78,4.2A8.76,8.76,0,0,1,77.24,29a10.46,10.46,0,0,1-3.68,2.08,15.36,15.36,0,0,1-4.94.74A18.17,18.17,0,0,1,58,28.44l3.36-6.32a14,14,0,0,0,3.48,2.32,8.32,8.32,0,0,0,3.4.76,4,4,0,0,0,2.86-.88,2.67,2.67,0,0,0,.94-2,2.7,2.7,0,0,0-.24-1.18,2.52,2.52,0,0,0-.8-.92,6.34,6.34,0,0,0-1.46-.78c-.59-.24-1.32-.51-2.18-.8s-2-.67-3-1.06A9.51,9.51,0,0,1,61.8,16,7.08,7.08,0,0,1,60,13.62a8.5,8.5,0,0,1-.71-3.7A10.75,10.75,0,0,1,60,5.86a9.23,9.23,0,0,1,2.08-3.12,9.31,9.31,0,0,1,3.28-2A12.43,12.43,0,0,1,69.7,0a19.07,19.07,0,0,1,4.68.62,20.37,20.37,0,0,1,4.68,1.82Z"/><path class="cls-1" d="M140.58,31V.84h7.84L162.9,19.28V.84h7.8V31h-7.8L148.42,12.56V31Z"/><path class="cls-1" d="M209.18,8.56A9.53,9.53,0,0,0,206.62,7a6.85,6.85,0,0,0-2.48-.5,4,4,0,0,0-2.48.72,2.25,2.25,0,0,0-1,1.88,1.88,1.88,0,0,0,.48,1.32,4.07,4.07,0,0,0,1.26.9,11.57,11.57,0,0,0,1.76.66c.66.19,1.3.39,1.94.6A12,12,0,0,1,211.76,16a8.43,8.43,0,0,1,1.78,5.58,10.84,10.84,0,0,1-.78,4.2A8.76,8.76,0,0,1,210.48,29a10.46,10.46,0,0,1-3.68,2.08,15.4,15.4,0,0,1-4.94.74,18.17,18.17,0,0,1-10.6-3.4l3.36-6.32a14,14,0,0,0,3.48,2.32,8.32,8.32,0,0,0,3.4.76,4,4,0,0,0,2.86-.88,2.67,2.67,0,0,0,.94-2,2.7,2.7,0,0,0-.24-1.18,2.52,2.52,0,0,0-.8-.92,6.34,6.34,0,0,0-1.46-.78c-.6-.24-1.32-.51-2.18-.8-1-.32-2-.67-3-1.06A9.51,9.51,0,0,1,195,16a7.23,7.23,0,0,1-1.84-2.42,8.66,8.66,0,0,1-.7-3.7,10.75,10.75,0,0,1,.74-4.06,9.23,9.23,0,0,1,2.08-3.12,9.31,9.31,0,0,1,3.28-2A12.43,12.43,0,0,1,202.94,0a19.07,19.07,0,0,1,4.68.62,20.37,20.37,0,0,1,4.68,1.82Z"/><path class="cls-1" d="M243.38,15.92A15.67,15.67,0,0,1,248.06,4.6a15.7,15.7,0,0,1,5.26-3.38,19.17,19.17,0,0,1,13.46,0,15.78,15.78,0,0,1,5.3,3.38,15.4,15.4,0,0,1,3.46,5.06,15.68,15.68,0,0,1,1.24,6.26,15.68,15.68,0,0,1-1.24,6.26,15.4,15.4,0,0,1-3.46,5.06,15.78,15.78,0,0,1-5.3,3.38,19.17,19.17,0,0,1-13.46,0,15.47,15.47,0,0,1-8.7-8.44A15.86,15.86,0,0,1,243.38,15.92Zm8.2,0a8.08,8.08,0,0,0,.68,3.32,8.64,8.64,0,0,0,1.84,2.64,8.35,8.35,0,0,0,2.7,1.74,8.88,8.88,0,0,0,6.52,0A8.33,8.33,0,0,0,266,21.88a8.21,8.21,0,0,0,1.86-2.64,7.92,7.92,0,0,0,.68-3.32,7.92,7.92,0,0,0-.68-3.32A8.21,8.21,0,0,0,266,10a8.33,8.33,0,0,0-2.72-1.74,8.88,8.88,0,0,0-6.52,0A8.35,8.35,0,0,0,254.1,10a8.64,8.64,0,0,0-1.84,2.64A8.08,8.08,0,0,0,251.58,15.92Z"/><path class="cls-1" d="M308.82,31h-9.76l-7.48-11.6V31h-7.84V.84h12.2a12,12,0,0,1,4.4.74,8.43,8.43,0,0,1,3.1,2,8.34,8.34,0,0,1,1.84,3,10.16,10.16,0,0,1,.62,3.6,8.84,8.84,0,0,1-1.66,5.58,8.34,8.34,0,0,1-4.9,2.9ZM291.58,14.32h1.48a5.7,5.7,0,0,0,3.56-1,3.27,3.27,0,0,0,1.24-2.76,3.27,3.27,0,0,0-1.24-2.76,5.7,5.7,0,0,0-3.56-1h-1.48Z"/><polygon class="cls-1" points="317.19 0.88 309 0.88 320 16.56 320 31.04 327.84 31.04 327.84 16.56 327.85 16.56 317.19 0.88"/><path class="cls-1" d="M336,27.16a4.69,4.69,0,0,1,1.36-3.32,4.43,4.43,0,0,1,1.5-1,4.72,4.72,0,0,1,5.14,1,4.81,4.81,0,0,1,1,1.5A4.78,4.78,0,0,1,345,29a4.81,4.81,0,0,1-1,1.5,4.64,4.64,0,0,1-1.5,1,4.78,4.78,0,0,1-3.64,0,4.43,4.43,0,0,1-1.5-1A4.69,4.69,0,0,1,336,27.16Z"/><path class="cls-1" d="M34.23,24.4h9.31v-5H34.75V12.72h8.79V7.52H34.23V.88H51.38V31H34.23Z"/><path class="cls-1" d="M0,.84H11.6a13.64,13.64,0,0,1,5.78,1.24,15.92,15.92,0,0,1,4.72,3.3,15.12,15.12,0,0,1,3.18,4.8,14.8,14.8,0,0,1,0,11.44,15.21,15.21,0,0,1-3.16,4.82,15.62,15.62,0,0,1-4.72,3.32A13.73,13.73,0,0,1,11.6,31H0ZM7.84,24.36h1.8a9.68,9.68,0,0,0,3.64-.64A7.71,7.71,0,0,0,16,22a7.63,7.63,0,0,0,1.68-2.66,9.44,9.44,0,0,0,.58-3.38,9.28,9.28,0,0,0-.6-3.36,7.82,7.82,0,0,0-1.7-2.68,7.71,7.71,0,0,0-2.7-1.76,9.58,9.58,0,0,0-3.6-.64H7.84Z"/><path class="cls-1" d="M119,14.16h15.56a41.39,41.39,0,0,1-.2,4.36,15.36,15.36,0,0,1-.8,3.64,14.66,14.66,0,0,1-2.28,4.18,13.41,13.41,0,0,1-3.38,3,16,16,0,0,1-4.26,1.86,18.49,18.49,0,0,1-4.88.64,17.26,17.26,0,0,1-6.42-1.16,14.65,14.65,0,0,1-5-3.26,15,15,0,0,1-3.24-5,17.65,17.65,0,0,1-1.16-6.5,17.71,17.71,0,0,1,1.14-6.46,14.12,14.12,0,0,1,3.24-5A14.66,14.66,0,0,1,112.4,1.2,17.87,17.87,0,0,1,119,0a16.34,16.34,0,0,1,8.28,2,14,14,0,0,1,5.64,6.32l-7.44,3.08a7.49,7.49,0,0,0-2.7-3.56A6.75,6.75,0,0,0,119,6.84a7.6,7.6,0,0,0-3.2.66,6.86,6.86,0,0,0-2.46,1.88,9,9,0,0,0-1.6,2.94,12.1,12.1,0,0,0-.58,3.84,12.3,12.3,0,0,0,.5,3.56,8.29,8.29,0,0,0,1.5,2.84,6.85,6.85,0,0,0,2.48,1.86,8.41,8.41,0,0,0,3.44.66,9.67,9.67,0,0,0,2.24-.26,6.17,6.17,0,0,0,1.94-.84,4.74,4.74,0,0,0,1.42-1.5,5.87,5.87,0,0,0,.76-2.24H119Z"/><rect class="cls-1" x="87.91" y="0.88" width="7.84" height="4.63"/><rect class="cls-1" x="87.91" y="11.32" width="7.84" height="19.72"/></g></g></svg>